999
Example DXF output 
0
SECTION
2
HEADER
9
$ACADVER
1
AC1021
9
$HANDSEED
5
4e20
0
ENDSEC
0
SECTION
2
CLASSES
0
ENDSEC
0
SECTION
2
TABLES
0
TABLE
2
VPORT
5
39
100
AcDbSymbolTable
70
1
0
VPORT
5
42
100
AcDbSymbolTableRecord
100
AcDbViewportTableRecord
2
*ACTIVE
40
1000
70
0
0
ENDTAB
0
TABLE
2
LTYPE
5
3a
100
AcDbSymbolTable
70
2
0
LTYPE
5
43
100
AcDbSymbolTableRecord
100
AcDbLinetypeTableRecord
2
ByBlock
70
0
72
65
73
0
40
0
3

0
LTYPE
5
44
100
AcDbSymbolTableRecord
100
AcDbLinetypeTableRecord
2
ByLayer
70
0
72
65
73
0
40
0
3

0
ENDTAB
0
TABLE
2
LAYER
5
3b
100
AcDbSymbolTable
70
1
0
LAYER
5
45
100
AcDbSymbolTableRecord
100
AcDbLayerTableRecord
2
0
70
0
390
1
0
ENDTAB
0
TABLE
2
STYLE
5
3c
100
AcDbSymbolTable
70
0
0
ENDTAB
0
TABLE
2
VIEW
5
3d
100
AcDbSymbolTable
70
0
0
ENDTAB
0
TABLE
2
UCS
5
3e
100
AcDbSymbolTable
70
0
0
ENDTAB
0
TABLE
2
APPID
5
3f
100
AcDbSymbolTable
70
1
0
APPID
5
46
100
AcDbSymbolTableRecord
100
AcDbRegAppTableRecord
2
ACAD
70
0
0
ENDTAB
0
TABLE
2
DIMSTYLE
5
40
100
AcDbSymbolTable
70
0
100
AcDbDimStyleTable
71
1
0
ENDTAB
0
TABLE
2
BLOCK_RECORD
5
41
100
AcDbSymbolTable
70
2
0
BLOCK_RECORD
5
47
100
AcDbSymbolTableRecord
100
AcDbBlockTableRecord
2
*Model_Space
70
0
280
1
281
0
0
BLOCK_RECORD
5
48
100
AcDbSymbolTableRecord
100
AcDbBlockTableRecord
2
*Paper_Space
70
0
280
1
281
0
0
ENDTAB
0
ENDSEC
0
SECTION
2
BLOCKS
0
BLOCK
5
49
100
AcDbEntity
100
AcDbBlockBegin
2
*Model_Space
70
0
10
0
20
0
30
0
3
*Model_Space
1

0
ENDBLK
5
4a
100
AcDbEntity
100
AcDbBlockEnd
0
BLOCK
5
4b
100
AcDbEntity
100
AcDbBlockBegin
2
*Paper_Space
70
0
10
0
20
0
30
0
3
*Paper_Space
1

0
ENDBLK
5
4c
100
AcDbEntity
100
AcDbBlockEnd
0
ENDSEC
0
SECTION
2
ENTITIES
0
LINE
5
4f
100
AcDbEntity
100
AcDbLine
10
0.0
20
0.0
30
0.0
11
1021.01764
21
0.0
31
0.0
62
5
0
LINE
5
50
100
AcDbEntity
100
AcDbLine
10
0.0
20
-313.47342
30
0.0
11
63.813602
21
-328.02573
31
0.0
62
5
0
LINE
5
51
100
AcDbEntity
100
AcDbLine
10
63.813602
20
-328.02573
30
0.0
11
127.627205
21
-369.5112
31
0.0
62
5
0
LINE
5
52
100
AcDbEntity
100
AcDbLine
10
127.627205
20
-369.5112
30
0.0
11
191.4408
21
-430.46008
31
0.0
62
5
0
LINE
5
53
100
AcDbEntity
100
AcDbLine
10
191.4408
20
-430.46008
30
0.0
11
255.25441
21
-496.86182
31
0.0
62
5
0
LINE
5
54
100
AcDbEntity
100
AcDbLine
10
255.25441
20
-496.86182
30
0.0
11
319.068
21
-552.78235
31
0.0
62
5
0
LINE
5
55
100
AcDbEntity
100
AcDbLine
10
319.068
20
-552.78235
30
0.0
11
382.8816
21
-590.4802
31
0.0
62
5
0
LINE
5
56
100
AcDbEntity
100
AcDbLine
10
382.8816
20
-590.4802
30
0.0
11
446.6952
21
-611.0417
31
0.0
62
5
0
LINE
5
57
100
AcDbEntity
100
AcDbLine
10
446.6952
20
-611.0417
30
0.0
11
510.50882
21
-617.48364
31
0.0
62
5
0
LINE
5
58
100
AcDbEntity
100
AcDbLine
10
510.50882
20
-617.48364
30
0.0
11
574.3224
21
-611.0417
31
0.0
62
5
0
LINE
5
59
100
AcDbEntity
100
AcDbLine
10
574.3224
20
-611.0417
30
0.0
11
638.136
21
-590.4802
31
0.0
62
5
0
LINE
5
5a
100
AcDbEntity
100
AcDbLine
10
638.136
20
-590.4802
30
0.0
11
701.9496
21
-552.78235
31
0.0
62
5
0
LINE
5
5b
100
AcDbEntity
100
AcDbLine
10
701.9496
20
-552.78235
30
0.0
11
765.7632
21
-496.86182
31
0.0
62
5
0
LINE
5
5c
100
AcDbEntity
100
AcDbLine
10
765.7632
20
-496.86182
30
0.0
11
829.5768
21
-430.46008
31
0.0
62
5
0
LINE
5
5d
100
AcDbEntity
100
AcDbLine
10
829.5768
20
-430.46008
30
0.0
11
893.3904
21
-369.5112
31
0.0
62
5
0
LINE
5
5e
100
AcDbEntity
100
AcDbLine
10
893.3904
20
-369.5112
30
0.0
11
957.20404
21
-328.02573
31
0.0
62
5
0
LINE
5
5f
100
AcDbEntity
100
AcDbLine
10
957.20404
20
-328.02573
30
0.0
11
1021.01764
21
-313.47342
31
0.0
62
5
0
LINE
5
60
100
AcDbEntity
100
AcDbLine
10
0.0
20
0.0
30
0.0
11
0.0
21
-313.47342
31
0.0
62
5
0
LINE
5
61
100
AcDbEntity
100
AcDbLine
10
63.813602
20
0.0
30
0.0
11
63.813602
21
-328.02573
31
0.0
62
5
0
LINE
5
62
100
AcDbEntity
100
AcDbLine
10
127.627205
20
0.0
30
0.0
11
127.627205
21
-369.5112
31
0.0
62
5
0
LINE
5
63
100
AcDbEntity
100
AcDbLine
10
191.4408
20
0.0
30
0.0
11
191.4408
21
-430.46008
31
0.0
62
5
0
LINE
5
64
100
AcDbEntity
100
AcDbLine
10
255.25441
20
0.0
30
0.0
11
255.25441
21
-496.86182
31
0.0
62
5
0
LINE
5
65
100
AcDbEntity
100
AcDbLine
10
319.068
20
0.0
30
0.0
11
319.068
21
-552.78235
31
0.0
62
5
0
LINE
5
66
100
AcDbEntity
100
AcDbLine
10
382.8816
20
0.0
30
0.0
11
382.8816
21
-590.4802
31
0.0
62
5
0
LINE
5
67
100
AcDbEntity
100
AcDbLine
10
446.6952
20
0.0
30
0.0
11
446.6952
21
-611.0417
31
0.0
62
5
0
LINE
5
68
100
AcDbEntity
100
AcDbLine
10
510.50882
20
0.0
30
0.0
11
510.50882
21
-617.48364
31
0.0
62
5
0
LINE
5
69
100
AcDbEntity
100
AcDbLine
10
574.3224
20
0.0
30
0.0
11
574.3224
21
-611.0417
31
0.0
62
5
0
LINE
5
6a
100
AcDbEntity
100
AcDbLine
10
638.136
20
0.0
30
0.0
11
638.136
21
-590.4802
31
0.0
62
5
0
LINE
5
6b
100
AcDbEntity
100
AcDbLine
10
701.9496
20
0.0
30
0.0
11
701.9496
21
-552.78235
31
0.0
62
5
0
LINE
5
6c
100
AcDbEntity
100
AcDbLine
10
765.7632
20
0.0
30
0.0
11
765.7632
21
-496.86182
31
0.0
62
5
0
LINE
5
6d
100
AcDbEntity
100
AcDbLine
10
829.5768
20
0.0
30
0.0
11
829.5768
21
-430.46008
31
0.0
62
5
0
LINE
5
6e
100
AcDbEntity
100
AcDbLine
10
893.3904
20
0.0
30
0.0
11
893.3904
21
-369.5112
31
0.0
62
5
0
LINE
5
6f
100
AcDbEntity
100
AcDbLine
10
957.20404
20
0.0
30
0.0
11
957.20404
21
-328.02573
31
0.0
62
5
0
LINE
5
70
100
AcDbEntity
100
AcDbLine
10
1021.01764
20
0.0
30
0.0
11
1021.01764
21
-313.47342
31
0.0
62
5
0
ENDSEC
0
SECTION
2
OBJECTS
0
DICTIONARY
5
4d
330
0
100
AcDbDictionary
281
1
3
ACAD_GROUP
350
4e
0
DICTIONARY
5
4e
330
4d
100
AcDbDictionary
281
1
0
ENDSEC
0
EOF
